<?xml version="1.0" standalone="no"?>
<!DOCTYPE svg PUBLIC "-//W3C//DTD SVG 20010904//EN"
 "http://www.w3.org/TR/2001/REC-SVG-20010904/DTD/svg10.dtd">
<svg version="1.0" xmlns="http://www.w3.org/2000/svg"
 width="100.000000pt" height="100.000000pt" viewBox="0 0 100.000000 100.000000"
 preserveAspectRatio="xMidYMid meet">
<metadata>
Created by potrace 1.11, written by Peter Selinger 2001-2013
</metadata>
<g transform="translate(0.000000,100.000000) scale(0.100000,-0.100000)"
fill="#000000" stroke="none">
<path d="M0 500 l0 -500 500 0 500 0 0 500 0 500 -500 0 -500 0 0 -500z m625
60 c58 -94 105 -175 105 -180 0 -6 -35 -10 -85 -10 -68 0 -85 3 -85 15 0 10
16 15 63 17 l64 3 -83 134 c-46 74 -87 138 -92 143 -6 6 -43 -45 -96 -130 -47
-76 -86 -142 -86 -145 0 -4 27 -7 60 -7 47 0 60 -3 60 -15 0 -12 -15 -15 -79
-15 -44 0 -82 4 -85 9 -3 5 40 83 95 173 116 186 118 190 130 182 5 -2 56 -81
114 -174z m-105 -186 c0 -64 -3 -85 -12 -82 -13 5 -24 138 -14 165 14 35 26
-5 26 -83z"/>
</g>
</svg>
